<?xml version="1.0" encoding="UTF-8" standalone="no"?>
<svg width="17px" height="16px" viewBox="0 0 17 16" version="1.1" xmlns="http://www.w3.org/2000/svg" xmlns:xlink="http://www.w3.org/1999/xlink" xmlns:sketch="http://www.bohemiancoding.com/sketch/ns">
    <!-- Generator: Sketch 3.3.3 (12072) - http://www.bohemiancoding.com/sketch -->
    <title>Imported Layers</title>
    <desc>Created with Sketch.</desc>
    <defs>
        <rect id="path-1" x="0" y="1799" width="1440" height="2580"></rect>
        <rect id="path-2" x="0" y="3966" width="1440" height="2580"></rect>
        <rect id="path-3" x="0" y="3966" width="1440" height="2580"></rect>
    </defs>
    <g id="Style-guide" stroke="none" stroke-width="1" fill="none" fill-rule="evenodd" sketch:type="MSPage">
        <g id="Style-1" sketch:type="MSArtboardGroup" transform="translate(-359.000000, -4320.000000)">
            <g id="paper-bg-copy-2">
                <use fill="none" sketch:type="MSShapeGroup" xlink:href="#path-1"></use>
                <use fill-opacity="0.6" fill="#FFFFFF" xlink:href="#path-1"></use>
            </g>
            <g id="paper-bg-copy">
                <use fill="none" sketch:type="MSShapeGroup" xlink:href="#path-2"></use>
                <use fill-opacity="0.6" fill="#FFFFFF" xlink:href="#path-2"></use>
            </g>
            <g id="paper-bg-copy-3">
                <use fill="none" sketch:type="MSShapeGroup" xlink:href="#path-3"></use>
                <use fill-opacity="0.6" fill="#FFFFFF" xlink:href="#path-3"></use>
            </g>
            <g id="Icons" sketch:type="MSLayerGroup" transform="translate(249.750000, 3744.000000)">
                <g id="Power-Copy" transform="translate(54.000000, 557.000000)" sketch:type="MSShapeGroup">
                    <g id="Imported-Layers" transform="translate(56.000000, 19.000000)">
                        <path d="M8,0.75 C12.004,0.75 15.25,3.996 15.25,8 C15.25,12.004 12.004,15.25 8,15.25 C3.996,15.25 0.75,12.004 0.75,8 C0.75,3.996 3.996,0.75 8,0.75 L8,0.75 Z" id="Stroke-1" stroke="#F4B457" stroke-width="1.5"></path>
                        <path d="M7,9 L9,9 L9,4 L7,4 L7,9 Z M7,12 L9,12 L9,10 L7,10 L7,12 Z" id="Fill-2" fill="#F4B457"></path>
                    </g>
                </g>
            </g>
        </g>
    </g>
</svg>