<?xml version="1.0" encoding="UTF-8" standalone="no"?>
<svg width="14px" height="13px" viewBox="0 0 14 13" version="1.1" xmlns="http://www.w3.org/2000/svg" xmlns:xlink="http://www.w3.org/1999/xlink" xmlns:sketch="http://www.bohemiancoding.com/sketch/ns">
    <!-- Generator: Sketch 3.3.3 (12072) - http://www.bohemiancoding.com/sketch -->
    <title>Imported Layers</title>
    <desc>Created with Sketch.</desc>
    <defs>
        <rect id="path-1" x="0" y="1799" width="1440" height="2580"></rect>
        <rect id="path-2" x="0" y="3966" width="1440" height="2580"></rect>
        <rect id="path-3" x="0" y="3966" width="1440" height="2580"></rect>
    </defs>
    <g id="Style-guide" stroke="none" stroke-width="1" fill="none" fill-rule="evenodd" sketch:type="MSPage">
        <g id="Style-1" sketch:type="MSArtboardGroup" transform="translate(-875.000000, -4088.000000)">
            <g id="paper-bg-copy-2">
                <use fill="none" sketch:type="MSShapeGroup" xlink:href="#path-1"></use>
                <use fill-opacity="0.6" fill="#FFFFFF" xlink:href="#path-1"></use>
            </g>
            <g id="paper-bg-copy">
                <use fill="none" sketch:type="MSShapeGroup" xlink:href="#path-2"></use>
                <use fill-opacity="0.6" fill="#FFFFFF" xlink:href="#path-2"></use>
            </g>
            <g id="paper-bg-copy-3">
                <use fill="none" sketch:type="MSShapeGroup" xlink:href="#path-3"></use>
                <use fill-opacity="0.6" fill="#FFFFFF" xlink:href="#path-3"></use>
            </g>
            <g id="Icons" sketch:type="MSLayerGroup" transform="translate(249.750000, 3744.000000)" fill="#38B44A">
                <g id="Approved" transform="translate(567.000000, 344.000000)" sketch:type="MSShapeGroup">
                    <path d="M65.5,13 C69.09,13 72,10.09 72,6.5 C72,2.91 69.09,0 65.5,0 C61.91,0 59,2.91 59,6.5 C59,10.09 61.91,13 65.5,13 L65.5,13 Z M68.275,4.062 L64.374,7.479 L62.119,5.544 L61.438,6.315 L64.375,9.406 L68.843,4.704 L68.275,4.063 L68.275,4.062 L68.275,4.062 Z" id="Imported-Layers"></path>
                </g>
            </g>
        </g>
    </g>
</svg>